<?xml version="1.0" encoding="UTF-8"?>
<svg id="Layer_2" data-name="Layer 2" xmlns="http://www.w3.org/2000/svg" viewBox="0 0 265.95 243.69">
  <defs>
    <style>
      .cls-1 {
        fill: #342e37;
      }
    </style>
  </defs>
  <g id="Layer_1-2" data-name="Layer 1">
    <path class="cls-1" d="M262.5,20.96c5.24,6.24,4.43,15.55-1.82,20.79l-88.81,74.52-29.4,24.67c-5.49,4.6-13.49,4.6-18.97,0l-29.4-24.67L5.27,41.75C-.97,36.51-1.79,27.2,3.45,20.96L16.62,5.27C21.86-.97,31.17-1.79,37.41,3.45L123.49,75.69c5.49,4.6,13.49,4.6,18.97,0L228.54,3.45c6.24-5.24,15.55-4.43,20.79,1.82l13.17,15.69Z"/>
    <path class="cls-1" d="M262.5,120.25c5.24,6.24,4.43,15.55-1.82,20.79l-88.81,74.52-29.4,24.67c-5.49,4.6-13.49,4.6-18.97,0l-29.4-24.67L5.27,141.04c-6.24-5.24-7.06-14.55-1.82-20.79l13.17-15.69c5.24-6.24,14.55-7.06,20.79-1.82l86.08,72.23c5.49,4.6,13.49,4.6,18.97,0l86.08-72.23c6.24-5.24,15.55-4.43,20.79,1.82l13.17,15.69Z"/>
  </g>
</svg>