<?xml version="1.0" encoding="UTF-8"?>
<svg id="Layer_2" data-name="Layer 2" xmlns="http://www.w3.org/2000/svg" viewBox="0 0 343.63 50.2">
  <defs>
    <style>
      .cls-1 {
        fill: #00a878;
      }
    </style>
  </defs>
  <g id="Layer_2-2" data-name="Layer 2">
    <path class="cls-1" d="M10,40H30v10H0V0H30V10H10v10h15v10H10v10ZM45,0h-10V15h-5v10h5v25h10V25h5V15h-5V0ZM232.02,50h5.95c1.12,0,2.02-.91,2.02-2.02V2.02c0-1.12-.91-2.02-2.02-2.02h-5.95c-1.12,0-2.02,.91-2.02,2.02V47.98c0,1.12,.91,2.02,2.02,2.02Zm111-7.46l-10.94-10.74c-.8-.79-.81-2.08-.01-2.87l6.34-6.34c.79-.79,.79-2.07,0-2.86l-4.21-4.21c-.79-.79-2.07-.79-2.86,0l-2.29,2.29c-1.27,1.27-3.45,.37-3.45-1.43V2.02c0-1.12-.91-2.02-2.02-2.02h-5.48c-1.38,0-2.5,1.12-2.5,2.5V47.98c0,1.12,.91,2.02,2.02,2.02h5.95c1.12,0,2.02-.91,2.02-2.02v-3.63c0-1.79,2.16-2.7,3.44-1.44l6.84,6.72c.79,.77,2.04,.77,2.83,0l4.3-4.2c.81-.79,.81-2.1,0-2.89Zm-98.5,7.46h5.95c1.12,0,2.02-.91,2.02-2.02V2.02c0-1.12-.91-2.02-2.02-2.02h-5.95c-1.12,0-2.02,.91-2.02,2.02V47.98c0,1.12,.91,2.02,2.02,2.02Zm-17.02-15c0,8.28-6.72,15-15,15s-15-6.72-15-15,6.72-15,15-15,15,6.72,15,15Zm-10,0c0-2.76-2.24-5-5-5s-5,2.24-5,5,2.24,5,5,5,5-2.24,5-5Zm67.5,.35v12.62c0,1.12-.91,2.02-2.02,2.02h-3.45c-1.12,0-2.02-.91-2.02-2.02h0c-2.54,1.47-5.55,2.24-8.76,1.97-7.11-.59-12.95-6.29-13.66-13.39-.94-9.36,6.72-17.18,16.02-16.52,7.9,.56,13.9,7.39,13.9,15.31Zm-10-.35c0-2.76-2.24-5-5-5s-5,2.24-5,5,2.24,5,5,5,5-2.24,5-5Zm-160,.35v12.62c0,1.12-.91,2.02-2.02,2.02h-3.45c-1.12,0-2.02-.91-2.02-2.02h0c-2.54,1.47-5.55,2.24-8.76,1.97-7.11-.59-12.95-6.29-13.66-13.39-.94-9.36,6.72-17.18,16.02-16.52,7.9,.56,13.9,7.39,13.9,15.31Zm-10-.35c0-2.76-2.24-5-5-5s-5,2.24-5,5,2.24,5,5,5,5-2.24,5-5Zm-36.84-14.99c-1.99-.08-3.89,.22-5.66,.85V2.5c0-1.38-1.12-2.5-2.5-2.5h-5c-1.38,0-2.5,1.12-2.5,2.5V47.5c0,1.38,1.12,2.5,2.5,2.5h5c1.38,0,2.5-1.12,2.5-2.5v-12.28c0-2.61,1.91-4.94,4.51-5.19,2.98-.29,5.49,2.05,5.49,4.98v12.5c0,1.38,1.12,2.5,2.5,2.5h5c1.38,0,2.5-1.12,2.5-2.5v-12.09c0-8.1-6.25-15.06-14.34-15.4Zm65,0c-1.99-.08-3.89,.22-5.66,.85v-.86c0-1.38-1.12-2.5-2.5-2.5h-5c-1.38,0-2.5,1.12-2.5,2.5v27.5c0,1.38,1.12,2.5,2.5,2.5h5c1.38,0,2.5-1.12,2.5-2.5v-12.28c0-2.61,1.91-4.94,4.51-5.19,2.98-.29,5.49,2.05,5.49,4.98v12.5c0,1.38,1.12,2.5,2.5,2.5h5c1.38,0,2.5-1.12,2.5-2.5v-12.09c0-8.1-6.25-15.06-14.34-15.4Zm168.5,10.06c1.15-.19,2.24,.01,3.16,.5,.81,.42,1.79,.34,2.43-.31l4.32-4.32c.87-.87,.78-2.33-.22-3.06-2.48-1.81-5.54-2.88-8.86-2.88-7.91,0-14.6,6.39-14.97,14.29-.4,8.61,6.46,15.71,14.98,15.71,3.3,0,6.34-1.06,8.82-2.86,1.01-.73,1.12-2.2,.24-3.08l-4.25-4.25c-.64-.64-1.63-.84-2.43-.41-.71,.38-1.52,.6-2.38,.6-3.11,0-5.56-2.84-4.89-6.08,.41-1.97,2.05-3.53,4.04-3.85ZM186.38,0h-12.5c-1.38,0-2.5,1.12-2.5,2.5V47.5c0,1.39,1.12,2.5,2.5,2.5h5c1.38,0,2.5-1.11,2.5-2.5V30h5c8.29,0,15-6.71,15-15s-6.71-15-15-15Zm0,20h-5V10h5c2.76,0,5,2.24,5,5s-2.24,5-5,5Z"/>
  </g>
</svg>