<?xml version="1.0" encoding="UTF-8"?>
<svg id="Layer_2" data-name="Layer 2" xmlns="http://www.w3.org/2000/svg" xmlns:xlink="http://www.w3.org/1999/xlink" viewBox="0 0 500 500">
  <defs>
    <style>
      .cls-1 {
        fill: none;
      }

      .cls-2 {
        clip-path: url(#clippath);
      }

      .cls-3 {
        fill: #503D3F;
      }
    </style>
    <clipPath id="clippath">
      <rect class="cls-1" width="500" height="500"/>
    </clipPath>
  </defs>
  <g id="Layer_1-2" data-name="Layer 1">
    <g class="cls-2">
      <g>
        <g>
          <path class="cls-3" d="M206.86,198.01c5.94,.48,11.02,2.9,15.76,6.18,.7,.48,1.72,.95,1.37,1.97-.3,.88-1.64,1.49-2.14,1.06-1.44-1.23-6.44,3.01-4.74-3.05,.21-.73-.97-1.39-1.86-1.59-1.38-.3-1.27,.89-1.49,1.65-.89,3.12-3.05,4.01-6.06,3.69-5.87-.62-11.75,1-17.63-.09-1.42-.26-3.17,.22-3.84-1.41-.71-1.72,1.02-2.55,1.95-3.59,4.54-5.1,11-5.77,17.09-7.27,1.95-.48,4.03-.49,5.99-1.64-1.01-1.71-2.24-2.59-4.28-2.24-5.48,.94-10.99,1.72-16.45,2.72-1.45,.27-3.89-.26-3.27,2.83,.14,.72-7.46,1.15-8.64,.31-2.08-1.48-.9-2.99-.02-4.55,1.96-3.5,3.9-6.14,8.93-4.93,2.86,.69,6.48-.04,8.52-3.26,.64-1.01,1.57-1.92,2.77-2.03,7.23-.64,14.48-2.64,21.69-.09,1.94,.68,3.35,1.7,3.38,4.43,.06,4.1-.1,8.54,4.62,10.98,1.27,.66,2.7,2.66,1.28,4.07-1.78,1.76-4.46,1.17-6.54,.39-2-.76-3.66-2.39-5.52-3.56-3.4-2.12-7.02-2.51-10.84-.97Zm-7.13,7.05c.5-.53-.52-1.42-1.51-.95-.1,.05-.27,.28-.21,.33,.33,.32,1.41,.94,1.72,.61Z"/>
          <path class="cls-3" d="M273.23,195.41c5.05-3.26,10.06-.8,15.06-.42-10.2-4.94-20.97-3.09-28.84,4.34-2.15,2.03,.28,3.74-.37,5.53,1.84,.2,4.03,.95,5.42-.25,2.86-2.45,2.62-2.54,5.43-.78,2.89,1.81,6.52,3.45,9.49,3.01,5.78-.85,11.59-1.96,18.04-3.15-7.94-4.46-15.53-7.78-24.23-8.29Zm2.05,7.56c-.31,.33-1.39-.29-1.72-.61-.06-.06,.11-.28,.21-.33,.99-.48,2.01,.42,1.51,.95Z"/>
          <path class="cls-3" d="M252.35,186.15c.05-2.31,4.84-6.86,8.25-4.91,1.51,.86,2.71,.13,3.94-.3,2.11-.74,4.09-.7,6.06,.26,1.56,.76,3.24,1.43,4.97,.56,4.02-2.02,7.46-.44,10.82,1.16,2.95,1.4,5.7,4.83,9.16,4.89,4.29,.08,6.07,3.42,6.64,7.05l.09-.07c-.68,.11-1.68,.52-2.01,.28-6.81-4.91-13.67-5.19-20.89-5.48-7.43-.3-16.72,5.91-23.85,3.14-1.93-.75-3.22-4.81-3.18-6.58Z"/>
        </g>
        <path class="cls-3" d="M336.3,330.02c-.18-.17-.36-.34-.55-.51,.14-.03,.31-.13,.41-.08,.39,.17,.39,.41,.04,.66,0,0,.1-.07,.1-.07Zm-110.86,61.46c-1.65-2.23-3.27-3.94-6.3-4.09,2.35,4.17,2.5,4.27,6.3,4.09Zm17.11,60.27s-.27,.14-.27,.14l.27,.15s0-.29,0-.29ZM154.78,183.99c.09,.05,.18,.09,.27,.14l-.25-.16s-.02,.02-.02,.02Zm311.97,367.31c0,2.62-.53,3.15-3.16,3.15-144.79-.08-289.57-.08-434.36,0-2.63,0-3.16-.53-3.16-3.15,.1-46.48,.07-92.97,.07-139.45,1.54-.48,2.19-1.91,3.05-3.03,7.86-10.26,16.67-19.63,25.96-28.59,7.2-6.94,14.33-13.51,23.74-17.98,11.98-5.69,23.69-11.94,36.09-16.75,16.92-6.56,34.46-11.49,50.79-19.58,1.11-.55,2.5-1.9,3.95-.36-5.62,4.51-8.75,10.65-8.71,17.57,.11,18.64,1.48,37.19,7.07,55.17,.42,1.36,.7,3.24,2.54,3.11,2.34-.17,4.67-.8,6.95-1.44,.49-.14-.18-.94-.32-1.45-3.68-13.34-5.57-27-7.18-40.71-1.54-13.04-2.18-25.87,7.67-36.51-.01,0-.02,0-.03,0,.31-.32,.62-.63,.93-.95,0,0,0,0,0,0l-.11,.04c.4-.27,.79-.54,1.19-.81,1.79-.96,3.73-1.72,5.33-2.93,1.88-1.41,3.72-3.62,2.84-5.87-1.57-4.03-3.1-8.73-6.18-11.4-6.22-5.41-6.26-13.56-10.51-19.83-5.02-7.4-4.82-16.8-5.07-25.31-.38-12.72-2.89-25.27-2.35-38.06,.13-3.06,1.54-7.05-1.84-9.74v-.08c1.68-.51,1.25-1.97,.96-2.92-1.56-5.13-.57-10.62-2.53-15.75-.58-1.52-.99-3.65,.51-5.9,.91-1.37,2.6-5.28-1.28-6.9,.05-.2,.02-.38-.08-.56,.75-.27,1.56-.92,1.15-1.56-2.39-3.72-1.49-8.06-.85-11.59,.76-4.17-.63-6.16-3.41-8.22-1.6,.23-2.25-.66-2.48-2.06,0,0,0,0,0,0,.71-1.72-1-1.68-1.72-2.37-1.62-2.24-1.36-8.93,.35-11.43,1.02-1.49,2.77-2.67,2.38-4.86,.58,.74,.72-3.1,1.5-.15,.33,1.26,1.04,1.65,2.24,1.11,.74-1.99-.55-4.92,2.65-5.79,1.04,1.4,1.65,2.98,1.41,4.51,.24-1.53-.37-3.11-1.41-4.51,.41-1.95-1.01-3.6-.98-5.44,.05-3.17,3.4,.99,3.84-1.62,.05-.27,.28-.5,.42-.75-.02-2.11-.04-4.21-.06-6.32,0,0,0,0,0,0-.28-.66-.55-1.32-.83-1.98-1.63-.98-2.7-1.97-.05-3.02h0c.26-.49,.15-.82-.42-.94,1.3-2.48,2.14-5.11,2.67-7.85,.58-.87,1.25-1.75-.01-2.61,.21-.77,.92-.58,1.44-.76,1.85,0,1.42-2.61,3.18-2.88,.53,2.45-2.22,3.8-1.82,6.08,0,0,.29,.25,.29,.25,.89-.18,.35,3.54,1.95,.85,1.45-2.43,3.6-3.76,6.06-4.91-1.44-1.49-4.25-.37-4.54-3.04,.98-.18,2.01-.53,2.9,.07,4.77,3.2,6.05,0,7.01-3.78,.21-.83,.38-1.68,.56-2.51,0,0,.03-.01,.03-.01,1.38,.21,2.23-.41,2.65-1.7,1.18-.9,2.35-1.81,3.53-2.71,1.06,0,1.48-.67,1.55-1.58,.07-.93-.64-1.11-1.37-1.18,.04-.21,.09-.42,.15-.63,1.32,.41,1.66-.25,1.53-1.41,2.93-3.09,3.97-7.97,9.45-8.76,1.25-.18,1.96-3.88,2.98-5.92,1.42-2.83,3.66-3.87,6.75-3.03-3.03,1.33-5.56,3.13-6.89,6.23-.44,1.04-2.08,2.46,.04,3.12,1.45,.45,2.95,3.12,4.8,.42,.8-1.18,1.82-2.21,2.41-2.91,3.16-1.09,4.84,6.99,8.66,.75,.82,.17,1.59,1.43,2.49,.12,1.15,.1,2.48-.13,3.43,.37,4.33,2.26,5.37,.01,5.37-3.72,0-2.5,.71-4.86,1.15-7.29,.23-1.26,.84-1.82,1.81-1.95,1.37-.18,1.42,1.16,1.81,2.03,.5,1.12,.31,2.26,.1,3.42-.15,.83-.25,1.68,.01,2.39,0,0,0,0,0,0,.07-.05,.16-.09,.25-.13,.02,0,.04-.01,.06-.02,.1-.04,.21-.07,.34-.09,.97-.17,.98,.96,.67,1.53-.23,.41-1.52,1.12-1.52,1.12,2.59,1.59,3.13,1.31,5.78-2.79,4.12,2.61,8.45,10.04,13.04,8.81-.17-1.84-.79-3.29-2.86-3.77-1.1-.25-1.88-1.17-1.13-2.23,.79-1.12,1.47-.02,2,.55,1.21,1.31,2.57,1.74,4.23,.93,1.93-4.02,5.66-3.03,8.46-2.19,3.7,1.1,10.01,6.13,13.77,7,1.39,.32,5.96,2.37,5.53,4-.27,1.02-1.01-.46-1.64-.43-.31,1.61-.64,3.2-2.24,3.92,1.05,2.63,4.89-1.95,5,2.33,1.74,4.83,7.5,3.87,10.31,7.15,5.89,1.28,3.82,2.92,6.55,7.65,0,0,.13,.06,.13,.06,5.28,1.02,2.99-5.61,7.68-3.36,.75,.36,1.26,1.58,.89,2.7,1.99,7.25,2.2,7.98,.52,1.89,2.35,.67,3.46,1.92,3.35,4.65-.13,3.23,3.34,11.9,4.37,14.79,.42,1.18,1.23,2.55-.28,2.72-2.61,.3-3.15,2.07-2.31,3.51,.93,1.59,1.42,4.74,4.71,3.54-1.35-1.26-1.8-2.8-1.48-4.58,.72,1.32,1.44,2.64,2.17,3.95,0,0,0,0,0,0,1.54,2.12,3.53,3.26,6.25,3.04,1.73-.14-.42,9.95,.48,12.12-.01,.35-.02,.7-.04,1.05-.77,.32-1.37,.74-1.07,1.72,0,0,.11-.01,.11-.01l-.03,.08s-.05-.03-.07-.05c-1.1,.25-.74,1.01-.52,1.72,.2-.56,.39-1.11,.59-1.67,1.24,.85,2.39,1.97,4.12,1.42,.22-.08,.43-.15,.65-.23-.08,.21-.17,.42-.25,.63,.27,1.6-2.75,1.95-1.62,3.56,.88,1.26,2.67,.69,4.1,.7,.29-.74-.23-1.78,.97-2.3,.44,1.06,.03,1.86-.62,2.61,0,0,0,0,0,0,.07,2.13-2.4,2.31-3.02,3.91-3.67,1.39-5.75,3.25-2.61,7.23,.85,1.08,.99,2.69,.22,4.16-.4,.76-.97,1.8-.73,2.45,2.64,7.14-1.8,6.95-.72,14.14,.48,3.19-1.4,6.73-2.21,10.11-1.29,1.92-2.09,4.22-4.17,5.54-1.2,.76-1.31,2-1.04,3.12,.75,3.07,.37,6.24,.64,9.32,1.54,17.75-.97,35.43-1.61,53.15-.39,10.69-5.24,20.03-7.47,30.13-.86,3.91-6.7,6.15-5.27,9.98,1.38,3.7,4.54,6.97,6.66,10.64,1.89,3.27,3.25,7.86,8.64,7.22,.32,.22,.64,.43,.96,.65,.67,.4,1.33,.8,2,1.2,7.47,7.7,9.64,17.55,11.11,27.63,2.52,17.27-2.38,33.38-7.98,49.37-.86,2.45-1.69,4.91-2.64,7.33-.25,.64-.87,1.13-1.34,1.72,2.3,1.31,5.01,1.34,7.34,2.78,2.4,1.48,3.27-1,3.96-2.68,3.8-9.2,7.08-18.59,8.36-28.5,1.89-14.61,1.01-29.04-4.02-43.03-.92-2.54-2.33-4.91-3.53-7.35,6.2,1.47,11.58,4.93,17.43,7.22,15.27,5.97,30.65,11.66,45.5,18.69,11.17,5.28,21.61,11.66,31.74,18.65,5.86,4.05,8.56,10.68,13.26,15.69,7.83,8.34,13.99,18.03,20.83,27.16,.42,.56,.67,1.33,1.56,1.36,0,44.14-.03,88.28,.07,132.41ZM325.73,151.48h0c.09-.07,.17-.15,.23-.24-.07,.09-.15,.16-.23,.24Zm-147.31,169.49s-.02,.03-.03,.04c.01-.01,.02-.03,.03-.04Zm.15-.23c.04-.11,.07-.23,.08-.36-.01,.14-.04,.26-.08,.36Zm135.06-60.99c-.05-.28-.1-.55-.15-.83,0,0,0,0,0,0,.05,.28,.1,.56,.16,.83Zm-4.56-154.04c.11,.12,.2,.36,.31,.51,0,0,0,0,0,0-.1-.16-.2-.39-.31-.51Zm-118.51,286.43c-3.2-11.7-6.26-23.44-7.27-35.55-.88-10.62-3.44-21.33,.65-31.89,.22-.56,.19-1.48-1.41-2.01-2.29,4.35-2.95,9.14-3.16,13.99-.53,12.39,1.18,24.59,3.7,36.67,1.35,6.5,1.5,13.27,4.38,19.44,.65,1.39,.98,2.89,3.01,2.13,2.13-.79,.31-2.01,.1-2.79Zm6.58-106.33c2.4,1.27,2.74,.3,2.2-1.56-.61-2.11,.44-4.06,.15-6.08-.06-.39-.02-.72,.08-1-.02-.06-.05-.11-.06-.16-.78-2.34-1.51-4.68-2.22-6.98-2.14-.77-4.19-1.8-4.11-4.64,.11-4.29,2.08-7.86,5.12-10.83,2.5-2.44,5.37-.58,7.17,.48,2.81,1.64,5.4,1.34,6.87-.48,1.48-1.82,2.16,.55,3.58-.3,3.8-2.28,7.17-4.96,10.62-7.68,3.28-2.58,5.66-1.11,6.26,2.99,.32,2.19,8.05,5.61,10.1,4.44,4.19-2.39,8.33-4.84,12.53-7.21,3.34-1.89,5.43-.96,7.56,2.07,1.69,2.4,2.79,5.84,6.66,5.99,.3,.01,.59,.08,.81,.23,1.77,.71,4.81,2.81,5.81,3.21,4.17,1.64,4.18,1.6,6.67-1.34,3.99,3.69,7.51,12.04,1.84,13.67,1.58,3.96,.35,7.7-3,11.23-.22,.23-.41,.62-.6,.99,.51,.21,.92,.63,1.09,1.15,1.7,5.3,6.38,4.76,9.58,4.03,1.74-.4,3.21-4.83,3.18-8.02,0-.71,.15-2.02,.38-1.86,2.56,1.77,4.19-2.11,6.54-.99,.29-1.84,1.63-3.25,1.98-5.15,.29-1.55,2.85-1.89,3.14-3.84,2.46,2.94,1.72-.59,2.43-1.2,2.51-2.15,1.01-6.22,3.87-8.2,3.14-13.42,4.11-24.9,4.34-33.34,.33-12.17,.55-20.01-2.6-29.84-1.44-4.5-2.62-6.43-5.48-15.06-.85-2.57-3.01-9.25-5.13-17.8-5.47-22.04-4.04-29.72-10.61-34.57-1.04-.77-4.27-2.94-8.91-4.41-4.33-1.37-7.9-1.55-9.13-1.53-5.8,.07-6.49,1.26-10.71,1.15-4.34-.12-4.39-1.4-10.09-2.51-7.13-1.39-13.08-.56-15.75-.17-6.43,.95-5.88,2.19-11.13,2.68-4.17,.39-5.06-.34-15.13-1.39-6.72-.7-10.08-1.05-12.25-.67-7.77,1.35-12.81,6.52-14.01,7.82-4.26,4.6-5.59,9.63-7.21,17.51-3.33,16.25-2.64,19.34-4.79,30.46-2.94,15.22-6.47,20.95-7.47,32.98-.64,7.68-.15,14.78-.15,14.78,.18,2.8,.48,5.6,.9,8.41,.71,4.74,2.31,9.43,1.88,14.27-.67,7.57,1.89,13.83,6.93,19.3,.52,.57,.36,1.86,1.64,1.58,3.45-.76,3.03,1.56,3.04,3.67,0,1.45,.28,3.85,1.73,3.43,3.46-1,3.97,1.6,5.61,3.23,2.56,2.54,4.92,5.31,8.25,7.08Zm104.85-8.54v1.89c0-.75,0-1.32,0-1.89,0,0,0,0,0,0Zm0,2.75c.15-.17,.27-.34,.37-.49-.1,.15-.23,.32-.37,.49Zm.75-1.54s0-.08,0-.12c0,.04,0,.08,0,.12Zm-.06,.39c.02-.06,.04-.11,.05-.17,0,.05-.03,.11-.05,.17Zm-.2,.46c.05-.08,.1-.17,.14-.25-.03,.08-.09,.16-.14,.25Zm-.17-1.8s-.02-.02-.03-.03c0,0,.02,.02,.03,.03Zm.23,.29s-.02-.04-.03-.05c.01,.02,.02,.04,.03,.05Zm.15,.31s-.01-.06-.02-.08c.01,.03,.01,.06,.02,.08Zm-95.36,10.94l-.06,.25m9.44-.68c3.51,.89,8.15,3.6,7.09,6.02-.5,1.15,6.56,1.37,6.77,2.78,.52,3.42,3.68,2.28,2.57,3.42-.9,.92,3.85,.15,2.91,1.05-1.61,1.54,1.5,2.32,2.57,3.41,1.28,1.32,2.58,.9,3.46-.83,1.26-2.47,4.48,.64,4.4-2.3-.04-1.32-.45-2.81,1.8-3.82-3.2,3.59,2.15,4.41,1.59,7.09,2.25-.08,2.15-.57,4.52-1.09,.31-1.6,.26-3.47,2.63-3.52-.1-1.99,1.43-2.65,2.76-2.24,1.59,.49,1.7,6.24,2.08,4.07,.41-2.32,1.7-5.49,4.26-6.04,3.16-.69,7.14,1.15,7.7-1.47,.85-3.94,2.79-7.36,4.51-10.9,.3-.61,.67-1.02,1.06-1.28-.51-.93-.64-2.3-.3-3.6,.78-2.99,1.62-5.94,2.44-8.81-1.7-1.1-1.81-4.91-4.22-5.66-.03-1.41-7.92-3.88-14.68-5.03-3.85,.79-7.88,.79-11.73,1.57-1.32,.27-2.81,.45-3.84-.41-4.32-3.6-8.87-1.58-12.88,.02-3.36,1.34-6.68,.61-9.56,1.25-3.51,.78-7.23-2.29-10.33,.87-.25,.26-1.52-.41-2.28-.73-1.79-.76-3.34-.7-4.84,1.31,6.7,2,15.08,1.42,21.28,3.54,.56,.19,1.02,.57,.91,1.69-6.07-2.42-5.38,1.44-4.56,5.45-2.09,.28-3.48-.85-4.93-1.63-4.01-2.15-9.91-5-14.17-6.6-2.33-.88-3.7,.19-5.04,1.3,2.53,2.45,3.2,5.89,2.43,10.09-.02,.12-.03,.25-.02,.4,1.62,2.42,2.82,4.93,2.01,8.02,.28,.01,.55,.02,.83,.03l-.04-.05s0,0,0,0h0c.1-.09,.2-.18,.3-.27-.09,.11-.17,.21-.26,.32,.86,.91-.81,3.58,1.42,3.04,0,0,7.11-1.01,9.38-.43Zm41.21,14.27c.15,.04,.54-.26,.57-.45,.23-1.14-.56-1.4-1.42-1.56,.09,.76-.31,1.73,.85,2.01Zm-32.47,88.55c-1.65-2.23-3.27-3.94-6.3-4.09,2.35,4.17,2.5,4.27,6.3,4.09Zm25.86,76.07c-3.92-.93-5.28,1.35-5.84,6.74-.42,4.04,2.38,5.44,4.96,6.6,2.15,.96,4.72-2.8,4.84-5.83,.61-4.24-1.04-6.81-3.96-7.5Zm52.06-159.1c-2.83,.6-1.85,4.2-3.82,5.33-7.57,4.36-11.26,12.72-19.31,17.13-6.14,3.36-11.65,7.64-18.57,10.01-11.95,4.09-23.45,3.24-35.18-.39-4.41-1.36-8.08-4.07-12.28-5.7-2.69-1.05-6.16-1.5-7.48-3.95-3.29-6.11-9.45-9.38-13.8-15.79,.53,5.4,.76,9.66,2.46,13.78,4.22,10.19,9.6,19.74,15.03,29.31,7.52,13.28,15.08,26.45,27.48,35.98,.9,.69,.98,1.74,.85,2.8-1.79-.28-1.78,.84-.95,1.67,3.39,3.36,6.93,6.58,10.42,9.84-.32,1.53,1.58,2.45,1.11,4.03-4.78,3.73-7.79,8.59-9.25,14.44-.35,0-.69-.01-1.04-.02,1-8.1-3.41-15.11-4.65-22.76-.32-2.01-.75-4.05-1.95-5.79-.4-.57-.87-1.44-1.62-1.13-.79,.33-1.48,1.24-1.08,2.16,1.39,3.15,1.16,6.65,2.23,9.86,2.02,6.07,3.62,12.23,3.71,18.66,.15,10.83-.06,21.66,1.16,32.45,.39,3.23,.77,6.45,1.16,9.68-.86,4.49,.63,8.86,.66,13.3-.25,6.99-.33,13.97,1.25,20.86-.18,2.16-.4,4.32-.54,6.48-.09,1.37,.54,2.3,1.98,2.31,1.52,.02,2.37-.6,2.32-2.38-.23-7.84,.82-15.79-.69-23.49-1.38-7.03-1.8-13.85-.5-20.9,.86-4.66,1.41-9.45,.1-14.19v-.29c1.17-8.5,1.18-17.03,.67-25.57,.41-.5,.82-1,1.24-1.5,.68,3.23,2.54,5.32,5.96,5.02,2.96-.27,4.03-2.62,4.31-5.31,.34-3.39-2.36-6.38-6.75-7.56,4.05-3.93,8.56-7.16,14.09-9.6-.88,2.96-1.58,5.45-2.36,7.91-4.07,12.82-1.95,25.96-1.84,38.97,.15,18.21,.77,36.41,1.17,54.62,.02,.86-.35,1.95,.96,1.95,.95,0,2.23-.08,2.46-1.36,.26-1.43,.42-2.9,.39-4.35-.22-12.15-.47-24.3-.74-36.46-.47-21.02-2.72-42.14,3.39-62.79,.39-1.33-.36-1.93-.93-2.65-.82-1.05-1.56-.05-2.22,.37-1.6,1.03-3.14,2.15-4.71,3.23-1.42,.09-2.14-.37-1-1.67,2.22-2.51,4.15-5.56,6.9-7.25,11.25-6.95,19.55-16.76,26.77-27.42,12.69-18.74,20.77-38.7,13.01-61.87Zm19.39,71.25c5.46-15.49,5.89-31.2,2.1-47.08-.46-1.94-.57-4.3-3.46-5.95,3.39,13.63,4.46,26.52,2.02,39.46-2.4,12.71-8,24.44-11.95,36.68-.25,.76-2.18,1.47-.55,2.37,1.15,.64,2.62,.34,3.39-1.02,.43-.75,.64-1.63,.92-2.46,2.51-7.34,4.96-14.69,7.54-22Zm13.46-49.62c.05,.01,.1,.03,.15,.04-.02-.04-.04-.07-.05-.11l-.1,.07Zm-16.65-208.55s.01,.03,.02,.04c0-.02,0-.05,0-.07l-.03,.03Zm0,0s.03-.03,.03-.03l-.17-.07s.13,.1,.13,.1Zm-42.24,143.44s0-.03,0-.04c-.02,0-.03-.01-.05-.02,0,0,.05,.06,.05,.06Zm-20.31,9.5c.71,1.12,3.34,.6,5.05,.34,5.26-.78,11.17-5.98,15.13-9.84-2.28,.06-12.32,3.56-14.32,3.59-7.26,.12-9.65-.05-5.86,5.91Zm20.31-9.5s-.05-.06-.05-.06c-.02,.02-.05,.05-.07,.07,.04,0,.09,0,.13,0Z"/>
      </g>
    </g>
  </g>
</svg>