<?xml version="1.0" encoding="UTF-8"?>
<svg id="Layer_2" data-name="Layer 2" xmlns="http://www.w3.org/2000/svg" viewBox="0 0 112.75 112.75">
  <defs>
    <style>
      .cls-1 {
        fill: #342e37;
      }
    </style>
  </defs>
  <g id="Layer_1-2" data-name="Layer 1">
    <path class="cls-1" d="M110.11,11.12l-8.47-8.47c-3.52-3.52-9.22-3.52-12.74,0l-26.15,26.15c-3.52,3.52-9.22,3.52-12.74,0L23.85,2.64c-3.51-3.51-9.21-3.51-12.73,0L2.64,11.12c-3.52,3.52-3.52,9.22,0,12.74l26.15,26.15c3.52,3.52,3.52,9.22,0,12.74L2.64,88.9c-3.52,3.52-3.52,9.22,0,12.74l8.47,8.47c3.52,3.52,9.22,3.52,12.74,0l26.15-26.15c3.52-3.52,9.22-3.52,12.74,0l26.15,26.15c3.52,3.52,9.22,3.52,12.74,0l8.47-8.47c3.52-3.52,3.52-9.22,0-12.74l-26.15-26.15c-3.52-3.52-3.52-9.22,0-12.74l26.15-26.15c3.52-3.52,3.52-9.22,0-12.74Z"/>
  </g>
</svg>