<?xml version="1.0" encoding="UTF-8"?>
<svg id="Layer_2" data-name="Layer 2" xmlns="http://www.w3.org/2000/svg" viewBox="0 0 263.55 335.49">
  <g id="Layer_1-2" data-name="Layer 1">
    <path d="M167.71,0c0,19.56,0,38.53,0,57.49,0,23.22,15.18,38.35,38.44,38.36,18.95,0,37.9,0,57.39,0,0,1.5,.01,135.91,0,201.8,0,22.51-15.33,37.81-37.84,37.82-62.63,.01-125.27,.02-187.9,0C15.33,335.47,.01,320.11,0,297.59,0,210.99,0,124.38,0,37.77,.01,15.33,15.39,.01,37.9,0H167.71Zm-36.19,215.63c7.02-.05,12.1-5.03,12.2-11.98,.12-8.48,.19-16.96-.05-25.43-.47-16.7-12.98-31.65-29.56-33.59-11.43-1.33-23.23-1.55-34.66-.36-18.85,1.97-31.4,17.17-31.52,36.13-.05,7.35-.03,14.71,0,22.07,.03,8.34,4.89,13.16,13.29,13.18,11.47,.03,58.33,.07,70.3-.02Zm.24-119.75c.02-19.81-16.13-36.01-35.88-35.97-19.85,.04-35.89,16.05-35.97,35.9-.08,19.74,16.14,35.99,35.89,35.97,19.86-.03,35.94-16.07,35.96-35.9Zm70.84,179.68c5.91,0,10.29-2.78,12.18-7.59,3.22-8.19-2.8-16.34-12.18-16.35-30.69-.03-61.38-.01-92.07-.01-16.59,0-33.19,.02-49.78-.01-5.56-.01-9.69,2.32-11.89,7.44-3.49,8.11,2.56,16.5,11.89,16.52,23.58,.05,118.15,.03,141.85,0Zm.67-119.82c7.02-.12,12.29-5.24,12.34-11.89,.04-6.66-5.21-11.95-12.17-12.04-7.86-.1-15.72-.1-23.57,0-6.99,.09-12.19,5.35-12.14,12.05,.05,6.51,5.22,11.69,11.98,11.86,3.99,.1,19.71,.08,23.57,0Zm.52,59.89c6.72-.21,11.85-5.49,11.82-12.01-.03-6.51-5.21-11.78-11.94-11.89-7.98-.12-15.97-.12-23.95,0-6.79,.1-11.93,5.27-12,11.81-.07,6.66,5.17,11.94,12.12,12.1,3.99,.09,19.96,.11,23.95-.01Z"/>
    <path d="M255.35,71.89c-.85,0-34.43,.01-50.15,0-8.71-.01-13.52-4.74-13.53-13.33-.02-16.83,0-35.72,0-52.54l63.68,65.88Z"/>
  </g>
</svg>