<?xml version="1.0" encoding="UTF-8"?>
<svg id="Layer_2" data-name="Layer 2" xmlns="http://www.w3.org/2000/svg" viewBox="0 0 126.9 114.53">
  <defs>
    <style>
      .cls-1 {
        fill: #342e37;
      }
    </style>
  </defs>
  <g id="Layer_1-2" data-name="Layer 1">
    <path class="cls-1" d="M44.89,8.98L2.52,44.53c-2.98,2.5-3.37,6.94-.87,9.92l6.28,7.49c2.5,2.98,6.94,3.37,9.92,.87l3.34-2.8v49.52c0,2.76,2.24,4.99,4.99,4.99h23.94c2.76,0,4.99-2.24,4.99-4.99v-18.42c0-2.76,2.24-4.99,4.99-4.99h6.41c2.76,0,4.99,2.24,4.99,4.99v18.42c0,2.76,2.24,4.99,4.99,4.99h24.2c2.76,0,4.99-2.24,4.99-4.99V60.01l3.34,2.8c2.98,2.5,7.42,2.11,9.92-.87l6.28-7.49c2.5-2.98,2.11-7.42-.87-9.92L82.01,8.98,72.04,.69c-1.92-1.59-4.82-.23-4.82,2.26V41.1c0,1.77,.82,3.42,2.18,4.57,1.94,1.65,3.19,4.09,3.24,6.82,.09,4.95-3.96,9.21-8.91,9.35-5.2,.15-9.46-4.02-9.46-9.18,0-2.85,1.3-5.4,3.34-7.08,1.33-1.1,2.07-2.76,2.07-4.48V2.95c0-2.49-2.9-3.85-4.82-2.26l-9.97,8.29Z"/>
  </g>
</svg>