<?xml version="1.0" encoding="UTF-8"?>
<svg id="Layer_2" data-name="Layer 2" xmlns="http://www.w3.org/2000/svg" xmlns:xlink="http://www.w3.org/1999/xlink" viewBox="0 0 50 50">
  <defs>
    <style>
      .cls-1 {
        fill: url(#linear-gradient);
      }
    </style>
    <linearGradient id="linear-gradient" x1="-6.56" y1="-6.56" x2="31.97" y2="31.97" gradientUnits="userSpaceOnUse">
      <stop offset="0" stop-color="#5ccae9"/>
      <stop offset=".3" stop-color="#58c7e8"/>
      <stop offset=".56" stop-color="#4dc1e6"/>
      <stop offset=".8" stop-color="#3bb6e4"/>
      <stop offset="1" stop-color="#27aae1"/>
    </linearGradient>
  </defs>
  <g id="Layer_2-2" data-name="Layer 2">
    <path class="cls-1" d="M40,0H2.5C1.12,0,0,1.12,0,2.5V7.5c0,1.38,1.12,2.5,2.5,2.5h15c1.38,0,2.5,1.12,2.5,2.5v5c0,1.38-1.12,2.5-2.5,2.5H7.5c-1.38,0-2.5,1.12-2.5,2.5v5c0,1.38,1.12,2.5,2.5,2.5h10c1.38,0,2.5,1.12,2.5,2.5v5c0,1.38-1.12,2.5-2.5,2.5H2.5c-1.38,0-2.5,1.12-2.5,2.5v5c0,1.38,1.12,2.5,2.5,2.5H27.5c1.38,0,2.5-1.12,2.5-2.5v-15c0-1.38,1.12-2.5,2.5-2.5h15c1.38,0,2.5-1.12,2.5-2.5V2.5c0-1.38-1.12-2.5-2.5-2.5h-7.5Zm-2.5,20h-5c-1.38,0-2.5-1.12-2.5-2.5v-5c0-1.38,1.12-2.5,2.5-2.5h5c1.38,0,2.5,1.12,2.5,2.5v5c0,1.38-1.12,2.5-2.5,2.5Z"/>
  </g>
</svg>